<svg width="180" height="50" viewBox="0 0 180 50" fill="none" xmlns="http://www.w3.org/2000/svg">
<path d="M6.24988 27.0833H8.33321V41.6667C8.33321 43.9646 10.202 45.8333 12.4999 45.8333H37.4999C39.7978 45.8333 41.6665 43.9646 41.6665 41.6667V27.0833H43.7499C44.1619 27.0832 44.5646 26.961 44.9071 26.7321C45.2496 26.5032 45.5166 26.1778 45.6742 25.7972C45.8319 25.4166 45.8731 24.9977 45.7928 24.5937C45.7124 24.1896 45.5141 23.8184 45.2228 23.5271L26.4728 4.77708C26.2795 4.58344 26.0499 4.42982 25.7972 4.32501C25.5444 4.22019 25.2735 4.16624 24.9999 4.16624C24.7263 4.16624 24.4553 4.22019 24.2026 4.32501C23.9499 4.42982 23.7203 4.58344 23.527 4.77708L4.77696 23.5271C4.4857 23.8184 4.28735 24.1896 4.207 24.5937C4.12665 24.9977 4.16791 25.4166 4.32555 25.7972C4.4832 26.1778 4.75016 26.5032 5.09268 26.7321C5.4352 26.961 5.8379 27.0832 6.24988 27.0833ZM24.9999 9.19583L37.4999 21.6958V31.25L37.502 41.6667H12.4999V21.6958L24.9999 9.19583Z" fill="#084088"/>
<path d="M25 37.5C32.7146 37.5 35.2104 30.1271 35.3125 29.8146L31.3542 28.5208C31.3375 28.5687 29.7271 33.3333 25 33.3333C20.3375 33.3333 18.7083 28.7062 18.6438 28.5083L14.6875 29.8146C14.7896 30.1271 17.2854 37.5 25 37.5Z" fill="#084088"/>
<path d="M74.1257 17.666V33H72.1237V17.666H74.1257ZM92.0358 20.724C92.9744 20.724 93.8104 20.922 94.5438 21.318C95.2771 21.6993 95.8564 22.2787 96.2818 23.056C96.7071 23.8333 96.9198 24.7793 96.9198 25.894V33H94.9398V26.18C94.9398 24.9773 94.6391 24.0607 94.0378 23.43C93.4511 22.7847 92.6518 22.462 91.6398 22.462C90.5984 22.462 89.7698 22.7993 89.1538 23.474C88.5378 24.134 88.2298 25.0947 88.2298 26.356V33H86.2498V26.18C86.2498 24.9773 85.9491 24.0607 85.3478 23.43C84.7611 22.7847 83.9618 22.462 82.9498 22.462C81.9084 22.462 81.0798 22.7993 80.4638 23.474C79.8478 24.134 79.5398 25.0947 79.5398 26.356V33H77.5378V20.944H79.5398V22.682C79.9358 22.0513 80.4638 21.5673 81.1238 21.23C81.7984 20.8927 82.5391 20.724 83.3458 20.724C84.3578 20.724 85.2524 20.9513 86.0298 21.406C86.8071 21.8607 87.3864 22.528 87.7678 23.408C88.1051 22.5573 88.6624 21.8973 89.4398 21.428C90.2171 20.9587 91.0824 20.724 92.0358 20.724ZM105.462 33.198C104.332 33.198 103.306 32.9413 102.382 32.428C101.472 31.9147 100.754 31.1887 100.226 30.25C99.7124 29.2967 99.4558 28.1967 99.4558 26.95C99.4558 25.718 99.7198 24.6327 100.248 23.694C100.79 22.7407 101.524 22.0147 102.448 21.516C103.372 21.0027 104.406 20.746 105.55 20.746C106.694 20.746 107.728 21.0027 108.652 21.516C109.576 22.0147 110.302 22.7333 110.83 23.672C111.372 24.6107 111.644 25.7033 111.644 26.95C111.644 28.1967 111.365 29.2967 110.808 30.25C110.265 31.1887 109.524 31.9147 108.586 32.428C107.647 32.9413 106.606 33.198 105.462 33.198ZM105.462 31.438C106.18 31.438 106.855 31.2693 107.486 30.932C108.116 30.5947 108.622 30.0887 109.004 29.414C109.4 28.7393 109.598 27.918 109.598 26.95C109.598 25.982 109.407 25.1607 109.026 24.486C108.644 23.8113 108.146 23.3127 107.53 22.99C106.914 22.6527 106.246 22.484 105.528 22.484C104.794 22.484 104.12 22.6527 103.504 22.99C102.902 23.3127 102.418 23.8113 102.052 24.486C101.685 25.1607 101.502 25.982 101.502 26.95C101.502 27.9327 101.678 28.7613 102.03 29.436C102.396 30.1107 102.88 30.6167 103.482 30.954C104.083 31.2767 104.743 31.438 105.462 31.438ZM116.278 23.188C116.689 22.4693 117.29 21.8827 118.082 21.428C118.874 20.9733 119.776 20.746 120.788 20.746C121.873 20.746 122.849 21.0027 123.714 21.516C124.579 22.0293 125.261 22.7553 125.76 23.694C126.259 24.618 126.508 25.696 126.508 26.928C126.508 28.1453 126.259 29.2307 125.76 30.184C125.261 31.1373 124.572 31.878 123.692 32.406C122.827 32.934 121.859 33.198 120.788 33.198C119.747 33.198 118.83 32.9707 118.038 32.516C117.261 32.0613 116.674 31.482 116.278 30.778V33H114.276V16.72H116.278V23.188ZM124.462 26.928C124.462 26.0187 124.279 25.2267 123.912 24.552C123.545 23.8773 123.047 23.364 122.416 23.012C121.8 22.66 121.118 22.484 120.37 22.484C119.637 22.484 118.955 22.6673 118.324 23.034C117.708 23.386 117.209 23.9067 116.828 24.596C116.461 25.2707 116.278 26.0553 116.278 26.95C116.278 27.8593 116.461 28.6587 116.828 29.348C117.209 30.0227 117.708 30.5433 118.324 30.91C118.955 31.262 119.637 31.438 120.37 31.438C121.118 31.438 121.8 31.262 122.416 30.91C123.047 30.5433 123.545 30.0227 123.912 29.348C124.279 28.6587 124.462 27.852 124.462 26.928ZM130.177 18.986C129.796 18.986 129.473 18.854 129.209 18.59C128.945 18.326 128.813 18.0033 128.813 17.622C128.813 17.2407 128.945 16.918 129.209 16.654C129.473 16.39 129.796 16.258 130.177 16.258C130.544 16.258 130.852 16.39 131.101 16.654C131.365 16.918 131.497 17.2407 131.497 17.622C131.497 18.0033 131.365 18.326 131.101 18.59C130.852 18.854 130.544 18.986 130.177 18.986ZM131.145 20.944V33H129.143V20.944H131.145ZM144.809 22.154C144.809 23.43 144.369 24.4933 143.489 25.344C142.624 26.18 141.297 26.598 139.507 26.598H136.559V33H134.557V17.666H139.507C141.238 17.666 142.551 18.084 143.445 18.92C144.355 19.756 144.809 20.834 144.809 22.154ZM139.507 24.948C140.622 24.948 141.443 24.706 141.971 24.222C142.499 23.738 142.763 23.0487 142.763 22.154C142.763 20.262 141.678 19.316 139.507 19.316H136.559V24.948H139.507ZM146.55 26.928C146.55 25.696 146.799 24.618 147.298 23.694C147.796 22.7553 148.478 22.0293 149.344 21.516C150.224 21.0027 151.199 20.746 152.27 20.746C153.326 20.746 154.242 20.9733 155.02 21.428C155.797 21.8827 156.376 22.4547 156.758 23.144V20.944H158.782V33H156.758V30.756C156.362 31.46 155.768 32.0467 154.976 32.516C154.198 32.9707 153.289 33.198 152.248 33.198C151.177 33.198 150.209 32.934 149.344 32.406C148.478 31.878 147.796 31.1373 147.298 30.184C146.799 29.2307 146.55 28.1453 146.55 26.928ZM156.758 26.95C156.758 26.0407 156.574 25.2487 156.208 24.574C155.841 23.8993 155.342 23.386 154.712 23.034C154.096 22.6673 153.414 22.484 152.666 22.484C151.918 22.484 151.236 22.66 150.62 23.012C150.004 23.364 149.512 23.8773 149.146 24.552C148.779 25.2267 148.596 26.0187 148.596 26.928C148.596 27.852 148.779 28.6587 149.146 29.348C149.512 30.0227 150.004 30.5433 150.62 30.91C151.236 31.262 151.918 31.438 152.666 31.438C153.414 31.438 154.096 31.262 154.712 30.91C155.342 30.5433 155.841 30.0227 156.208 29.348C156.574 28.6587 156.758 27.8593 156.758 26.95ZM163.243 18.986C162.861 18.986 162.539 18.854 162.275 18.59C162.025 18.326 161.901 18.0033 161.901 17.622C161.901 17.2407 162.025 16.918 162.275 16.654C162.539 16.39 162.861 16.258 163.243 16.258C163.624 16.258 163.939 16.39 164.189 16.654C164.453 16.918 164.585 17.2407 164.585 17.622C164.585 18.0033 164.453 18.326 164.189 18.59C163.939 18.854 163.624 18.986 163.243 18.986ZM164.233 35.618C164.233 36.6887 163.961 37.4733 163.419 37.972C162.876 38.4707 162.084 38.72 161.043 38.72H159.877V37.026H160.713C161.27 37.026 161.659 36.916 161.879 36.696C162.113 36.476 162.231 36.102 162.231 35.574V20.944H164.233V35.618ZM178.622 26.51C178.622 26.8913 178.6 27.2947 178.556 27.72H168.92C168.993 28.908 169.396 29.8393 170.13 30.514C170.878 31.174 171.78 31.504 172.836 31.504C173.701 31.504 174.42 31.306 174.992 30.91C175.578 30.4993 175.989 29.9567 176.224 29.282H178.38C178.057 30.4407 177.412 31.3867 176.444 32.12C175.476 32.8387 174.273 33.198 172.836 33.198C171.692 33.198 170.665 32.9413 169.756 32.428C168.861 31.9147 168.157 31.1887 167.644 30.25C167.13 29.2967 166.874 28.1967 166.874 26.95C166.874 25.7033 167.123 24.6107 167.622 23.672C168.12 22.7333 168.817 22.0147 169.712 21.516C170.621 21.0027 171.662 20.746 172.836 20.746C173.98 20.746 174.992 20.9953 175.872 21.494C176.752 21.9927 177.426 22.682 177.896 23.562C178.38 24.4273 178.622 25.41 178.622 26.51ZM176.554 26.092C176.554 25.3293 176.385 24.6767 176.048 24.134C175.71 23.5767 175.248 23.1587 174.662 22.88C174.09 22.5867 173.452 22.44 172.748 22.44C171.736 22.44 170.87 22.7627 170.152 23.408C169.448 24.0533 169.044 24.948 168.942 26.092H176.554ZM174.904 17.534L170.218 20.042V18.546L174.904 15.796V17.534Z" fill="#084088"/>
</svg>
